# xmcd CD database file
#
# Track frame offsets:
#	150
#	16690
#	27675
#	47715
#	70100
#	85720
#	95442
#	114912
#	136315
#	157640
#	178740
#	186460
#	195867
#	217380
#	236837
#	258662
#
# Disc length: 3614 seconds
#
# Revision: 2
# Processed by: cddbd v1.5.1PL0 Copyright (c) Steve Scherf et al.
# Submitted via: CDex 1.51
#
DISCID=d90e1c10
DTITLE=Pearl Django - New Metropolitan Swing
DYEAR=1996
DGENRE=Jazz
TTITLE0=Boheme Auberge
TTITLE1=Montagne Ste. Genevieve ("Django's Waltz")
TTITLE2=Stompin' At Decca
TTITLE3=Bella Savoy
TTITLE4=Stardust
TTITLE5=Moonlight In Vermont
TTITLE6=Tangerine
TTITLE7=Lady Be Good
TTITLE8=9:20 Special
TTITLE9=A Foggy Day
TTITLE10=Modern Hot
TTITLE11=At Sundown
TTITLE12=Djangology
TTITLE13=Bedtime For Bix
TTITLE14=Stompin' At The Savoy
TTITLE15=It's What Curley Said To Moe
EXTD=(C) 1996 Fret Records  FJCD 113\n\nNeil Andersson: Kyle (Gypsy Jazz model), Park Harlewuin, Maccaferri (Plastic acoustic) guitars\nDudley Hill: 1947 Gibson L-5, 30's Gibson ES 150 (Charlie Christian model) guitars\nShelly Park: Park Maccaferri repli
EXTD=ca guitar\nMichael Gray: violin\nDavid "Pope" Firman: string bass\n\nGuest artists:\nLance Buller: trumpet\nStephanie Porter: vocals\n\nEntry: Mike Lempriere <mikel@speakeasy.org>  17-Jun-1997\n YEAR: 1996
EXTT0=
EXTT1=
EXTT2=
EXTT3=
EXTT4=
EXTT5=
EXTT6=
EXTT7=
EXTT8=
EXTT9=
EXTT10=
EXTT11=
EXTT12=
EXTT13=
EXTT14=
EXTT15=
PLAYORDER=
